<svg xmlns="http://www.w3.org/2000/svg" xmlns:svg="http://www.w3.org/2000/svg" id="Layer_1" x="0" y="0" enable-background="new 0 0 250 180" version="1.1" viewBox="0 0 250 180" xml:space="preserve"><metadata id="metadata3739"/><style id="style3724" type="text/css">.st0{fill:#010101}.st1{fill:#edd490}.st2{fill:#f15725}.st3{fill:#6a8d8c}</style><polygon id="polygon3726" fill="#010101" points="274.7 307.7 363.1 396 395.4 363.7 427.8 396 516.2 307.7 425.3 216.9 395.4 246.8 365.6 216.9" class="st0" transform="translate(-272.58021,-214.44369)"/><polygon id="polygon3728" fill="#edd490" points="367.7 246.8 306.8 307.7 367.7 368.6 383.3 352.9 338.1 307.7 383.3 262.5" class="st1" transform="translate(-272.58021,-214.44369)"/><polygon id="polygon3730" fill="#f15725" points="397.1 274.7 364.1 307.7 397.1 340.7 409.5 328.3 388.9 307.7 409.5 287.1" class="st2" transform="translate(-272.58021,-214.44369)"/><polygon id="polygon3732" fill="#6a8d8c" points="424.8 368.6 485.7 307.7 424.8 246.8 409.2 262.5 454.4 307.7 409.2 352.9" class="st3" transform="translate(-272.58021,-214.44369)"/></svg>